<svg width="72.000000" height="72.000000" viewBox="0 0 72 72" fill="none" xmlns="http://www.w3.org/2000/svg" xmlns:xlink="http://www.w3.org/1999/xlink">
	<desc>
			Created with Pixso.
	</desc>
	<defs>
		<clipPath id="clip25_58">
			<rect id="engineering_3079165" width="72.000000" height="72.000000" fill="white" fill-opacity="0"/>
		</clipPath>
	</defs>
	<rect id="engineering_3079165" width="72.000000" height="72.000000" fill="#FFFFFF" fill-opacity="0"/>
	<g clip-path="url(#clip25_58)">
		<path id="Vector" d="M2.33997 49.0591C2.37939 49.5537 2.73828 49.9644 3.22424 50.0693L7.1449 50.915C7.2832 51.5835 7.45874 52.2427 7.67139 52.8862L4.70361 55.5747C4.33569 55.9077 4.22998 56.4434 4.44373 56.8921C4.98596 58.0332 5.59009 59.0874 6.23926 60.0254C6.52051 60.4326 7.03577 60.6084 7.5094 60.4565L11.3197 59.229C11.7754 59.7397 12.2603 60.2246 12.771 60.6802L11.5436 64.4907C11.3917 64.9619 11.5662 65.4785 11.9745 65.7607C12.9127 66.4097 13.9669 67.0142 15.1077 67.5562C15.5576 67.77 16.092 67.6631 16.425 67.2964L19.1138 64.3286C19.7584 64.54 20.4176 64.7168 21.0858 64.855L21.9319 68.7759C22.0365 69.2607 22.4471 69.6196 22.941 69.6602C23.5396 69.707 24.1392 69.75 24.75 69.75C25.3608 69.75 25.9604 69.707 26.559 69.6602C27.054 69.6206 27.4646 69.2617 27.5692 68.7759L28.4153 64.855C29.0835 64.7168 29.7439 64.541 30.3873 64.3286L33.0762 67.2964C33.4103 67.6641 33.9458 67.771 34.3936 67.5562C35.5343 67.0142 36.5884 66.4087 37.5266 65.7607C37.9351 65.4785 38.1094 64.9619 37.9575 64.4907L36.7301 60.6802C37.2408 60.2246 37.7257 59.7397 38.1814 59.23L41.9917 60.4575C42.4631 60.6104 42.9795 60.4351 43.2618 60.0264C43.911 59.0884 44.5151 58.0342 45.0574 56.8936C45.2711 56.4443 45.1654 55.9092 44.7975 55.5762L41.8297 52.8872C42.0413 52.2427 42.2179 51.5835 42.3562 50.915L46.2769 50.0693C46.7617 49.9644 47.1206 49.5537 47.1611 49.0601C47.2073 48.4604 47.25 47.8608 47.25 47.25C47.25 46.6392 47.2073 46.0396 47.16 45.4409C47.1206 44.9458 46.7617 44.5352 46.2758 44.4307L42.3551 43.5845C42.2168 42.9165 42.0413 42.2559 41.8286 41.6128L44.7964 38.9238C45.1643 38.5908 45.27 38.0552 45.0563 37.6064C44.514 36.4658 43.9087 35.4116 43.2607 34.4731C42.9784 34.0649 42.462 33.8896 41.9906 34.0425L38.1803 35.27C37.7246 34.7593 37.2397 34.2744 36.729 33.8184L37.9564 30.0083C38.1083 29.5366 37.9338 29.0205 37.5255 28.7383C36.5873 28.0889 35.5331 27.4849 34.3923 26.9424C33.9424 26.7275 33.408 26.8345 33.075 27.2026L30.3862 30.1704C29.7416 29.9585 29.0824 29.7822 28.4142 29.6436L27.5681 25.7231C27.4635 25.2383 27.0529 24.8794 26.559 24.8389C25.3608 24.7422 24.1381 24.7441 22.9398 24.8389C22.4448 24.8784 22.0343 25.2368 21.9296 25.7231L21.0836 29.6436C20.4154 29.7822 19.7561 29.9575 19.1127 30.1704L16.4238 27.2026C16.0908 26.8345 15.5565 26.729 15.1064 26.9424C13.9657 27.4849 12.9116 28.0889 11.9734 28.7383C11.5649 29.0205 11.3906 29.5366 11.5425 30.0083L12.7699 33.8184C12.2592 34.2744 11.7743 34.7593 11.3186 35.27L7.5094 34.0425C7.03687 33.8896 6.52051 34.0649 6.23926 34.4731C5.59009 35.4116 4.98596 36.4658 4.44373 37.6064C4.22998 38.0552 4.33569 38.5908 4.70361 38.9238L7.67139 41.6128C7.45984 42.2573 7.2832 42.9165 7.1449 43.5845L3.22424 44.4307C2.73938 44.5352 2.38049 44.9458 2.33997 45.4399C2.29272 46.0396 2.25 46.6392 2.25 47.25C2.25 47.8608 2.29272 48.4604 2.33997 49.0591ZM4.52368 46.4521L8.35083 45.6255C8.8031 45.5273 9.14966 45.1631 9.22388 44.7065C9.39258 43.6689 9.66492 42.6509 10.0327 41.6787C10.197 41.2471 10.0789 40.7573 9.73572 40.4473L6.84558 37.8281C7.09766 37.3452 7.36084 36.8833 7.63318 36.4453L11.3411 37.6401C11.7799 37.7808 12.2637 37.6401 12.5573 37.2822C13.2209 36.4702 13.9702 35.7222 14.7825 35.0571C15.1403 34.7646 15.2831 34.2822 15.1403 33.8408L13.9456 30.1333C14.3832 29.8599 14.8444 29.5962 15.3281 29.3457L17.9471 32.2368C18.2588 32.5801 18.7493 32.6982 19.1802 32.5337C20.1499 32.166 21.168 31.8936 22.2064 31.7251C22.6631 31.6509 23.0276 31.3042 23.1255 30.8521L23.9513 27.0249C24.4811 26.9966 25.02 26.9956 25.5476 27.0249L26.3745 30.8521C26.4724 31.3042 26.8369 31.6509 27.2936 31.7251C28.3309 31.8936 29.349 32.166 30.321 32.5337C30.7507 32.6982 31.2412 32.5811 31.5529 32.2368L34.1719 29.3467C34.6545 29.5986 35.1168 29.8618 35.5544 30.1343L34.3597 33.8423C34.218 34.2832 34.3597 34.7646 34.7175 35.0581C35.5298 35.7222 36.2778 36.4712 36.9427 37.2837C37.2363 37.6426 37.719 37.7852 38.1588 37.6411L41.8668 36.4468C42.1403 36.8843 42.4034 37.3452 42.6544 37.8281L39.7632 40.4473C39.42 40.7573 39.3019 41.2471 39.4662 41.6802C39.834 42.6499 40.1062 43.668 40.275 44.7065C40.3492 45.1631 40.6958 45.5273 41.1479 45.6255L44.9752 46.4512C44.9899 46.7153 45 46.9824 45 47.25C45 47.5176 44.991 47.7842 44.9763 48.0474L41.1492 48.8745C40.6969 48.9722 40.3503 49.3369 40.2761 49.7935C40.1074 50.8311 39.8351 51.8491 39.4673 52.8208C39.303 53.2529 39.4211 53.7422 39.7643 54.0527L42.6544 56.6719C42.4023 57.1543 42.1392 57.6167 41.8668 58.0542L38.1588 56.8599C37.7168 56.7158 37.2363 56.8584 36.9427 57.2173C36.2802 58.0273 35.5309 58.7769 34.7175 59.4429C34.3597 59.7354 34.218 60.2178 34.3597 60.6577L35.5544 64.3657C35.1168 64.6392 34.6556 64.9023 34.173 65.1533L31.554 62.2617C31.2435 61.9189 30.7542 61.8027 30.321 61.9648C29.3512 62.333 28.3331 62.605 27.2948 62.7739C26.838 62.8481 26.4735 63.1943 26.3756 63.647L25.5499 67.4741C25.02 67.502 24.4811 67.5034 23.9535 67.4741L23.1266 63.647C23.0288 63.1943 22.6643 62.8481 22.2075 62.7739C21.1703 62.605 20.1521 62.333 19.1802 61.9648C18.7493 61.8008 18.2588 61.9175 17.9482 62.2617L15.3292 65.1519C14.8467 64.8999 14.3843 64.6367 13.9467 64.3647L15.1414 60.6567C15.2831 60.2153 15.1414 59.7339 14.7836 59.4404C13.9714 58.7769 13.2233 58.0273 12.5583 57.2153C12.2648 56.8564 11.781 56.7144 11.3423 56.8574L7.63428 58.0522C7.36084 57.6147 7.09766 57.1533 6.8468 56.6694L9.73804 54.0508C10.0812 53.7402 10.1992 53.2505 10.035 52.8174C9.66711 51.8477 9.3949 50.8296 9.22607 49.7915C9.15186 49.3345 8.80542 48.9702 8.35315 48.8721L4.52368 48.0488C4.51013 47.7842 4.5 47.5176 4.5 47.25C4.5 46.9824 4.50903 46.7153 4.52368 46.4521Z" fill="#C5A376" fill-opacity="1.000000" fill-rule="nonzero"/>
		<path id="Vector" d="M60.9963 18.2642C61.4194 18.1313 61.7253 17.7612 61.776 17.3203C61.8435 16.7524 61.875 16.2383 61.875 15.75C61.875 15.2617 61.8435 14.7476 61.7771 14.1792C61.7264 13.7383 61.4205 13.3682 60.9976 13.2354L57.8779 12.2559C57.7845 12.0005 57.681 11.7495 57.5674 11.5044L59.0793 8.60742C59.2842 8.21484 59.2391 7.73779 58.9646 7.38916C58.3132 6.56543 57.564 5.81641 56.7383 5.1626C56.3895 4.88672 55.9125 4.84326 55.5199 5.04688L52.6207 6.55859C52.3755 6.44629 52.1246 6.34277 51.8693 6.24951L50.8894 3.12988C50.7566 2.70654 50.3865 2.40088 49.9456 2.3501C48.807 2.21729 47.9419 2.21729 46.8033 2.3501C46.3624 2.40088 45.9923 2.70654 45.8595 3.12988L44.8796 6.24951C44.6243 6.34277 44.3734 6.44629 44.1282 6.55957L41.2312 5.04785C40.8386 4.84424 40.3628 4.88818 40.0128 5.1626C39.1893 5.81396 38.4402 6.56299 37.7865 7.38916C37.5109 7.73779 37.4658 8.21338 37.6707 8.60742L39.1815 11.5044C39.069 11.7495 38.9655 12.0005 38.8721 12.2559L35.7524 13.2354C35.3295 13.3682 35.0236 13.7383 34.9729 14.1792C34.9065 14.7476 34.875 15.2617 34.875 15.75C34.875 16.2383 34.9065 16.7524 34.9729 17.3203C35.0236 17.7612 35.3295 18.1313 35.7524 18.2642L38.8721 19.2441C38.9655 19.4995 39.069 19.7505 39.1826 19.9956L37.6707 22.8926C37.4658 23.2852 37.5109 23.7622 37.7854 24.1108C38.4368 24.9346 39.186 25.6836 40.0117 26.3374C40.3594 26.6128 40.8375 26.6567 41.2301 26.4531L44.127 24.9424C44.3722 25.0547 44.6232 25.1582 44.8785 25.2515L45.8584 28.3711C45.9911 28.7944 46.3612 29.1001 46.8022 29.1509C47.3727 29.2183 47.8867 29.25 48.375 29.25C48.8633 29.25 49.3773 29.2183 49.9456 29.1519C50.3865 29.1016 50.7566 28.7954 50.8894 28.3726L51.8693 25.2529C52.1246 25.1592 52.3755 25.0562 52.6207 24.9424L55.5176 26.4541C55.9103 26.6592 56.3872 26.6152 56.736 26.3394C57.5594 25.688 58.3087 24.939 58.9624 24.1133C59.238 23.7646 59.283 23.2886 59.0782 22.895L57.5663 19.998C57.6799 19.7524 57.7833 19.502 57.8767 19.2466L60.9963 18.2642ZM56.6539 17.27C56.2983 17.3823 56.0216 17.6626 55.9136 18.02C55.7606 18.5288 55.5581 19.0181 55.3129 19.4761C55.1362 19.8042 55.1328 20.1992 55.3062 20.5288L56.7338 23.2651C56.4672 23.561 56.1847 23.8433 55.89 24.1089L53.1541 22.6812C52.8232 22.5078 52.4283 22.5122 52.101 22.688C51.6431 22.9331 51.1538 23.1357 50.6453 23.2886C50.2886 23.3955 50.0073 23.6733 49.8949 24.0288L48.9679 26.981C48.5573 27.0054 48.1938 27.0054 47.7821 26.981L46.8551 24.0288C46.7427 23.6733 46.4625 23.3965 46.1047 23.2886C45.5951 23.1357 45.1057 22.9331 44.6501 22.688C44.3217 22.5112 43.9268 22.5078 43.5959 22.6812L40.86 24.1089C40.5641 23.8423 40.2817 23.5596 40.0162 23.2651L41.4438 20.5288C41.616 20.1992 41.6138 19.8032 41.4371 19.4761C41.1919 19.0181 40.9894 18.5288 40.8364 18.02C40.7295 17.6636 40.4517 17.3823 40.0961 17.27L37.1442 16.3428C37.1306 16.1367 37.125 15.9399 37.125 15.75C37.125 15.5596 37.1306 15.3628 37.1442 15.1572L40.0961 14.23C40.4517 14.1177 40.7284 13.8374 40.8364 13.4795C40.9894 12.9702 41.1919 12.4805 41.4371 12.0249C41.6138 11.6968 41.6171 11.3018 41.4438 10.9707L40.0162 8.23486C40.2828 7.93896 40.5653 7.65674 40.86 7.39111L43.5959 8.81885C43.9257 8.99072 44.3217 8.98779 44.649 8.81201C45.1069 8.56689 45.5962 8.36426 46.1047 8.21143C46.4614 8.10449 46.7427 7.82666 46.8551 7.47119L47.7821 4.51904C48.1927 4.49414 48.5562 4.49414 48.9679 4.51904L49.8949 7.47119C50.0073 7.82666 50.2875 8.10352 50.6453 8.21143C51.1549 8.36426 51.6443 8.56689 52.0999 8.81201C52.4283 8.98877 52.8232 8.99219 53.1541 8.81885L55.89 7.39111C56.1859 7.65771 56.4683 7.93994 56.7338 8.23486L55.3062 10.9707C55.134 11.3008 55.1362 11.6968 55.3129 12.0239C55.5581 12.4819 55.7606 12.9712 55.9136 13.4795C56.0205 13.8364 56.2983 14.1177 56.6539 14.23L59.6058 15.1572C59.6194 15.3628 59.625 15.5596 59.625 15.75C59.625 15.9399 59.6194 16.1367 59.6058 16.3428L56.6539 17.27Z" fill="#C5A376" fill-opacity="1.000000" fill-rule="nonzero"/>
		<path id="Vector" d="M68.9198 39.3345L66.9871 38.6484C66.8767 38.3345 66.7507 38.0273 66.6079 37.7295L67.4865 35.8784C67.6699 35.4937 67.6193 35.0396 67.356 34.7041C66.7935 33.9854 66.1433 33.334 65.4221 32.769C65.0857 32.5059 64.629 32.4565 64.2465 32.6387L62.3948 33.5171C62.0978 33.3755 61.7906 33.2485 61.4768 33.1392L60.7894 31.2065C60.6465 30.8047 60.2876 30.5181 59.8646 30.4663C58.8623 30.3457 58.1366 30.3457 57.1343 30.4663C56.7113 30.5171 56.3524 30.8037 56.2095 31.2065L55.5232 33.1392C55.2094 33.2495 54.9022 33.3755 54.6041 33.5186L52.7535 32.6396C52.371 32.4575 51.9154 32.5083 51.579 32.77C50.8601 33.3325 50.2087 33.9829 49.644 34.7041C49.3818 35.0396 49.3313 35.4951 49.5135 35.8799L50.3921 37.7314C50.2504 38.0283 50.1233 38.3354 50.0142 38.6494L48.0814 39.3369C47.6797 39.48 47.3928 39.8389 47.3412 40.2617C47.2793 40.7598 47.25 41.2065 47.25 41.625C47.25 42.0435 47.2793 42.4893 47.34 42.9897C47.3906 43.4126 47.6775 43.7715 48.0802 43.9146L50.0131 44.6006C50.1233 44.9146 50.2493 45.2217 50.3921 45.52L49.5135 47.3706C49.3301 47.7554 49.3807 48.21 49.644 48.5449C50.2065 49.2637 50.8567 49.915 51.5779 50.48C51.9131 50.7422 52.3699 50.793 52.7535 50.6104L54.6052 49.7319C54.9022 49.8735 55.2094 50.001 55.5232 50.1099L56.2106 52.0425C56.3535 52.4443 56.7124 52.731 57.1354 52.7827C57.636 52.8457 58.0815 52.875 58.5 52.875C58.9185 52.875 59.364 52.8457 59.8646 52.7852C60.2876 52.7344 60.6465 52.4478 60.7894 52.0449L61.4756 50.1123C61.7896 50.002 62.0967 49.876 62.3948 49.7329L64.2454 50.6118C64.629 50.7949 65.0857 50.7456 65.4199 50.481C66.1388 49.9185 66.7902 49.2686 67.3549 48.5474C67.6169 48.2119 67.6676 47.7563 67.4854 47.3716L66.6067 45.52C66.7485 45.2227 66.8756 44.9155 66.9847 44.6021L68.9175 43.9146C69.3191 43.7715 69.606 43.4126 69.6577 42.9897C69.7207 42.4893 69.75 42.0435 69.75 41.625C69.75 41.2065 69.7207 40.7612 69.66 40.2607C69.6094 39.8364 69.3225 39.4785 68.9198 39.3345ZM67.4888 42.0356L65.7056 42.6689C65.3602 42.792 65.0958 43.0752 64.998 43.4287C64.8506 43.9629 64.6403 44.4727 64.3737 44.9438C64.1936 45.2622 64.1802 45.6494 64.3365 45.98L65.1443 47.6821C64.9575 47.8867 64.7617 48.0825 64.5581 48.2681L62.856 47.4604C62.5275 47.3042 62.1394 47.3179 61.8198 47.4976C61.3474 47.7656 60.8378 47.9746 60.3057 48.1221C59.9524 48.2197 59.6688 48.4844 59.5452 48.8296L58.9117 50.6128C58.6395 50.6274 58.3628 50.6274 58.0905 50.6128L57.4572 48.8296C57.3345 48.4844 57.051 48.2197 56.6978 48.1221C56.1633 47.9746 55.6538 47.7642 55.1824 47.4976C54.864 47.3188 54.4781 47.3052 54.1462 47.4604L52.4441 48.2681C52.2394 48.0815 52.0436 47.8857 51.858 47.6821L52.6658 45.98C52.8232 45.6494 52.8086 45.2622 52.6287 44.9438C52.3608 44.4712 52.1516 43.9619 52.0043 43.4297C51.9064 43.0762 51.642 42.793 51.2966 42.6689L49.5135 42.0356C49.5045 41.8994 49.5 41.7637 49.5 41.625C49.5 41.4868 49.5045 41.3496 49.5112 41.2144L51.2944 40.5801C51.6398 40.4575 51.9042 40.1738 52.0009 39.8208C52.1494 39.2852 52.3597 38.7769 52.6263 38.3052C52.8064 37.9868 52.8198 37.6001 52.6635 37.269L51.8557 35.5669C52.0425 35.3623 52.2383 35.1665 52.4419 34.981L54.144 35.7886C54.4747 35.9463 54.8617 35.9326 55.1802 35.7515C55.6526 35.4839 56.1622 35.2744 56.6943 35.127C57.0476 35.0293 57.3312 34.7646 57.4548 34.4194L58.0883 32.6362C58.3605 32.6216 58.6372 32.6216 58.9095 32.6362L59.5428 34.4194C59.6655 34.7646 59.949 35.0293 60.3022 35.127C60.8367 35.2744 61.3462 35.4849 61.8176 35.7515C62.1371 35.9326 62.5229 35.9463 62.8538 35.7886L64.5559 34.981C64.7606 35.1675 64.9564 35.3633 65.142 35.5669L64.3342 37.269C64.1768 37.6001 64.1914 37.9868 64.3713 38.3052C64.6392 38.7778 64.8484 39.2876 64.9957 39.8193C65.0936 40.1729 65.358 40.4561 65.7034 40.5801L67.4865 41.2134C67.4955 41.3506 67.5 41.4868 67.5 41.625C67.5 41.7637 67.4955 41.8994 67.4888 42.0356Z" fill="#C5A376" fill-opacity="1.000000" fill-rule="nonzero"/>
		<path id="Vector" d="M24.75 59.625C31.5731 59.625 37.125 54.0732 37.125 47.25C37.125 40.4268 31.5731 34.875 24.75 34.875C17.9269 34.875 12.375 40.4268 12.375 47.25C12.375 54.0732 17.9269 59.625 24.75 59.625ZM24.75 37.125C30.3323 37.125 34.875 41.668 34.875 47.25C34.875 52.832 30.3323 57.375 24.75 57.375C19.1677 57.375 14.625 52.832 14.625 47.25C14.625 41.668 19.1677 37.125 24.75 37.125Z" fill="#C5A376" fill-opacity="1.000000" fill-rule="nonzero"/>
		<path id="Vector" d="M2.27478 28.5288L4.00281 29.9697C9.15417 23.7925 16.7153 20.25 24.75 20.25C25.3226 20.25 25.8942 20.2827 26.4657 20.3184L25.0797 21.7046L26.6704 23.2954L30.0454 19.9204C30.4852 19.4805 30.4852 18.7695 30.0454 18.3296L26.6704 14.9546L25.0797 16.5454L26.6085 18.0742C25.9897 18.0347 25.3699 18 24.75 18C16.047 18 7.85474 21.8374 2.27478 28.5288Z" fill="#C5A376" fill-opacity="1.000000" fill-rule="nonzero"/>
		<path id="Vector" d="M48.375 10.125C45.2733 10.125 42.75 12.6484 42.75 15.75C42.75 18.8516 45.2733 21.375 48.375 21.375C51.4767 21.375 54 18.8516 54 15.75C54 12.6484 51.4767 10.125 48.375 10.125ZM48.375 19.125C46.5143 19.125 45 17.6108 45 15.75C45 13.8892 46.5143 12.375 48.375 12.375C50.2357 12.375 51.75 13.8892 51.75 15.75C51.75 17.6108 50.2357 19.125 48.375 19.125Z" fill="#C5A376" fill-opacity="1.000000" fill-rule="nonzero"/>
		<path id="Vector" d="M58.5 37.125C56.0183 37.125 54 39.1431 54 41.625C54 44.1069 56.0183 46.125 58.5 46.125C60.9817 46.125 63 44.1069 63 41.625C63 39.1431 60.9817 37.125 58.5 37.125ZM58.5 43.875C57.2592 43.875 56.25 42.8657 56.25 41.625C56.25 40.3843 57.2592 39.375 58.5 39.375C59.7408 39.375 60.75 40.3843 60.75 41.625C60.75 42.8657 59.7408 43.875 58.5 43.875Z" fill="#C5A376" fill-opacity="1.000000" fill-rule="nonzero"/>
		<path id="Vector" d="M68.8455 5.64746L63.2205 4.52246C62.6085 4.39893 62.0178 4.7959 61.8964 5.40479L60.7714 11.0298L62.9775 11.4717L63.5839 8.44336C64.674 10.7114 65.25 13.2109 65.25 15.75C65.25 19.6289 63.9697 23.2764 61.5487 26.2969L63.3048 27.7041C66.0105 24.3281 67.5 20.0835 67.5 15.75C67.5 12.8037 66.8193 9.89893 65.5245 7.27783L68.4045 7.85352L68.8455 5.64746Z" fill="#C5A376" fill-opacity="1.000000" fill-rule="nonzero"/>
	</g>
</svg>
