<svg width="72.000000" height="72.000000" viewBox="0 0 72 72" fill="none" xmlns="http://www.w3.org/2000/svg" xmlns:xlink="http://www.w3.org/1999/xlink">
	<desc>
			Created with Pixso.
	</desc>
	<defs>
		<clipPath id="clip25_67">
			<rect id="badge_1534216" width="72.000000" height="72.000000" fill="white" fill-opacity="0"/>
		</clipPath>
	</defs>
	<rect id="badge_1534216" width="72.000000" height="72.000000" fill="#FFFFFF" fill-opacity="0"/>
	<g clip-path="url(#clip25_67)">
		<path id="Vector" d="M60.9119 22.5854L57.5315 18.4844C57.0673 17.9214 56.7849 17.2402 56.7157 16.5146L56.2059 11.2241C55.9412 8.4751 53.7538 6.28809 51.005 6.02295L45.7146 5.51367C44.989 5.44434 44.3079 5.16162 43.7448 4.69824L39.6436 1.31689C37.5128 -0.438965 34.4196 -0.438965 32.2888 1.31689L28.1876 4.69824C27.6251 5.16162 26.944 5.44434 26.2178 5.51367L20.9274 6.02295C18.1786 6.28809 15.9918 8.4751 15.7264 11.2241L15.2173 16.5146C15.1475 17.2402 14.8651 17.9214 14.4015 18.4844L11.0205 22.5854C9.26428 24.7163 9.26428 27.8096 11.0205 29.9404L14.4015 34.0415C14.8651 34.6045 15.1475 35.2856 15.2173 36.0112L15.7264 41.3018C15.9912 44.0503 18.1786 46.2373 20.9274 46.5024L24.1611 46.814L16.4779 65.1738C16.2698 65.6738 16.3636 66.2363 16.7235 66.6416C17.0833 67.0464 17.6299 67.2065 18.1495 67.0591L24.8154 65.1772C24.8445 65.1689 24.8726 65.1816 24.8857 65.2051L28.2239 71.2749C28.4722 71.7271 28.9364 71.9995 29.4473 71.9995C29.4714 71.9995 29.4956 71.999 29.5203 71.998C30.0603 71.9702 30.5272 71.644 30.7408 71.1411L38.8525 51.7559C39.1278 51.5977 39.3926 51.4155 39.6442 51.2085L43.7454 47.8281C44.2644 47.3994 44.8857 47.1289 45.5487 47.0342L52.8958 64.5898L47.6965 63.1221C46.7078 62.8438 45.6724 63.2769 45.1763 64.1763L42.5731 68.9097L39.1239 60.667C38.896 60.123 38.2709 59.8667 37.7264 60.0942C37.1826 60.3218 36.9261 60.9473 37.1541 61.4912L41.1943 71.1465C41.4058 71.644 41.8722 71.9702 42.4127 71.998C42.4374 71.999 42.4615 72 42.4857 72C42.9966 72 43.4608 71.7271 43.7091 71.2749L47.0468 65.2061C47.0604 65.1816 47.089 65.1699 47.1171 65.1772L53.7819 67.0591C54.3026 67.2061 54.8497 67.0464 55.209 66.6416C55.5687 66.2363 55.6627 65.6743 55.454 65.1729L47.7712 46.8135L51.005 46.502C53.7538 46.2373 55.9412 44.0503 56.2059 41.3018L56.7157 36.0107C56.7849 35.2852 57.0673 34.6045 57.5315 34.0415L60.9119 29.9404C62.6686 27.8096 62.6686 24.7163 60.9119 22.5854ZM29.3599 68.9097L26.7561 64.1753C26.2606 63.2764 25.2241 62.8433 24.2358 63.1221L19.0372 64.5894L26.3837 47.0342C27.0472 47.1289 27.6686 47.3994 28.1876 47.8276L32.2888 51.2085C33.3545 52.0869 34.6602 52.5259 35.9664 52.5259C36.0505 52.5259 36.134 52.5234 36.218 52.5195L29.3599 68.9097ZM59.2645 28.5825L55.884 32.6836C55.1479 33.5757 54.7008 34.6558 54.5898 35.8062L54.0807 41.0967C53.9137 42.8306 52.5343 44.21 50.8007 44.377L46.1536 44.8242C46.1354 44.8257 46.1167 44.8271 46.0986 44.8301L45.5103 44.8867C44.3589 44.9976 43.2789 45.4448 42.3868 46.1802L38.2856 49.5605C36.942 50.6685 34.9908 50.6685 33.6473 49.5605L29.5461 46.1802C28.6541 45.4448 27.5741 44.9971 26.4227 44.8867L25.8317 44.8296C25.8152 44.8271 25.7992 44.8262 25.7827 44.8252L21.1322 44.377C19.3987 44.21 18.0193 42.8306 17.8523 41.0967L17.3431 35.8071C17.2322 34.6558 16.785 33.5757 16.049 32.6836L12.6685 28.5825C11.5604 27.2383 11.5604 25.2871 12.6685 23.9434L16.049 19.8423C16.785 18.9502 17.2322 17.8701 17.3431 16.7188L17.8523 11.4282C18.0193 9.69482 19.3987 8.31543 21.1322 8.14844L26.4227 7.63916C27.5741 7.52832 28.6541 7.08105 29.5461 6.3457L33.6473 2.96484C34.3191 2.41113 35.1431 2.13379 35.9664 2.13379C36.7899 2.13379 37.6139 2.41064 38.2856 2.96484L42.3868 6.3457C43.2789 7.08105 44.3589 7.52881 45.5103 7.63916L50.8007 8.14844C52.5343 8.31543 53.9137 9.69482 54.0807 11.4282L54.5898 16.7188C54.7008 17.8701 55.1479 18.9502 55.884 19.8423L59.2645 23.9434C60.3719 25.2876 60.3719 27.2383 59.2645 28.5825Z" fill="#C5A376" fill-opacity="1.000000" fill-rule="nonzero"/>
		<path id="Vector" d="M35.9664 9.58447C35.2534 9.58447 34.536 9.62939 33.8329 9.71973C33.2484 9.79443 32.8348 10.3291 32.9095 10.9136C32.9843 11.499 33.5198 11.9121 34.1036 11.8379C34.7167 11.7593 35.3435 11.7197 35.9664 11.7197C43.9858 11.7197 50.51 18.2437 50.51 26.2632C50.51 34.2827 43.9854 40.8062 35.9664 40.8062C27.947 40.8062 21.4227 34.2822 21.4227 26.2627C21.4227 20.543 24.7955 15.3325 30.0151 12.9888C30.553 12.7476 30.7936 12.1152 30.5519 11.5771C30.3102 11.0391 29.6779 10.7988 29.1406 11.0405C23.1548 13.7285 19.2876 19.7036 19.2876 26.2627C19.2876 35.46 26.7698 42.9414 35.9664 42.9414C45.1631 42.9414 52.6453 35.46 52.6453 26.2627C52.6453 17.0659 45.1631 9.58447 35.9664 9.58447Z" fill="#C5A376" fill-opacity="1.000000" fill-rule="nonzero"/>
		<path id="Vector" d="M25.363 25.0259C24.0902 26.2988 24.0902 28.3701 25.363 29.6431L30.0261 34.3066C30.6431 34.9229 31.4626 35.2627 32.335 35.2627C33.2067 35.2627 34.0269 34.9229 34.6437 34.3066L44.823 24.127C46.0958 22.8535 46.0958 20.7827 44.823 19.5093C43.5503 18.2363 41.4788 18.2363 40.2054 19.5093L32.335 27.3804L29.98 25.0259C28.7073 23.7534 26.6357 23.7534 25.363 25.0259ZM32.335 29.9585C32.6178 29.9585 32.8892 29.8457 33.0897 29.645L41.7156 21.0195C42.1561 20.5786 42.8724 20.5791 43.313 21.0195C43.7535 21.46 43.7535 22.1768 43.313 22.6167L33.1337 32.7964C32.9205 33.0098 32.6365 33.1274 32.335 33.1274C32.0328 33.1274 31.7494 33.0098 31.5363 32.7964L26.8726 28.1333C26.4325 27.6929 26.4325 26.9761 26.8726 26.5361C27.0928 26.3159 27.3823 26.2056 27.6718 26.2056C27.9607 26.2056 28.2502 26.3159 28.47 26.5356L31.5796 29.645C31.7802 29.8457 32.0515 29.9585 32.335 29.9585Z" fill="#C5A376" fill-opacity="1.000000" fill-rule="nonzero"/>
	</g>
</svg>
