<svg width="72.000000" height="76.000000" viewBox="0 0 72 76" fill="none" xmlns="http://www.w3.org/2000/svg" xmlns:xlink="http://www.w3.org/1999/xlink">
	<desc>
			Created with Pixso.
	</desc>
	<defs>
		<clipPath id="clip25_48">
			<rect id="new-product_4129437 2" width="72.000000" height="76.000000" fill="white" fill-opacity="0"/>
		</clipPath>
	</defs>
	<rect id="new-product_4129437 2" width="72.000000" height="76.000000" fill="#FFFFFF" fill-opacity="0"/>
	<g clip-path="url(#clip25_48)">
		<path id="Vector" d="M68.625 65.0967C68.9233 65.0967 69.2095 64.9717 69.4205 64.749C69.6315 64.5264 69.75 64.2241 69.75 63.9092L69.75 59.5908C69.75 59.2759 69.6315 58.9736 69.4205 58.751C69.2095 58.5283 68.9233 58.4033 68.625 58.4033L67.2001 58.4033C67.0295 57.8462 66.8164 57.3047 66.5629 56.7842L67.572 55.7192C67.6765 55.6089 67.7594 55.478 67.8159 55.334C67.8724 55.1899 67.9016 55.0356 67.9016 54.8794C67.9016 54.7236 67.8724 54.5693 67.8159 54.4253C67.7594 54.2812 67.6765 54.1499 67.572 54.04L64.6803 50.9878C64.5759 50.877 64.4519 50.7896 64.3153 50.7295C64.1787 50.6694 64.0323 50.6387 63.8844 50.6387C63.5861 50.6387 63.2994 50.7637 63.0885 50.9868L62.0793 52.0518C61.5862 51.7842 61.0732 51.5591 60.5457 51.3789L60.5457 49.875C60.5457 49.5601 60.4271 49.2578 60.2162 49.0352C60.0051 48.8125 59.719 48.6875 59.4207 48.6875L55.3293 48.6875C55.031 48.6875 54.7449 48.8125 54.5338 49.0352C54.3229 49.2578 54.2043 49.5601 54.2043 49.875L54.2043 51.3789C53.6768 51.5591 53.1638 51.7842 52.6707 52.0518L51.6615 50.9863C51.5571 50.876 51.4331 50.7886 51.2966 50.729C51.1602 50.6694 51.0138 50.6387 50.8661 50.6387C50.7184 50.6387 50.5721 50.6694 50.4357 50.729C50.2992 50.7886 50.1752 50.876 50.0707 50.9863L47.178 54.04C47.0735 54.1504 46.9906 54.2812 46.9341 54.4253C46.8776 54.5693 46.8484 54.7236 46.8484 54.8794C46.8484 55.0356 46.8776 55.1899 46.9341 55.334C46.9906 55.478 47.0735 55.6089 47.178 55.7192L48.1871 56.7842C47.9336 57.3047 47.7206 57.8462 47.5499 58.4033L46.125 58.4033C45.8267 58.4033 45.5405 58.5283 45.3295 58.751C45.1185 58.9736 45 59.2759 45 59.5908L45 63.9092C45 64.2241 45.1185 64.5264 45.3295 64.749C45.5405 64.9717 45.8267 65.0967 46.125 65.0967L47.5499 65.0967C47.7205 65.6538 47.9336 66.1953 48.1871 66.7158L47.178 67.7808C47.0735 67.8911 46.9906 68.022 46.9341 68.166C46.8776 68.3101 46.8484 68.4644 46.8484 68.6206C46.8484 68.7764 46.8776 68.9307 46.9341 69.0747C46.9906 69.2192 47.0735 69.3501 47.178 69.46L50.0707 72.5137C50.1752 72.624 50.2992 72.7114 50.4357 72.771C50.5721 72.8306 50.7184 72.8613 50.8662 72.8613C51.0139 72.8613 51.1602 72.8306 51.2966 72.771C51.4331 72.7114 51.5571 72.624 51.6616 72.5137L52.6707 71.4482C53.1638 71.7158 53.6768 71.9409 54.2043 72.1211L54.2043 73.625C54.2043 73.9399 54.3229 74.2422 54.5339 74.4648C54.7449 74.6875 55.031 74.8125 55.3293 74.8125L59.4207 74.8125C59.7191 74.8125 60.0052 74.6875 60.2162 74.4648C60.4271 74.2422 60.5457 73.9399 60.5457 73.625L60.5457 72.1211C61.0734 71.9409 61.5863 71.7158 62.0793 71.4482L63.0885 72.5137C63.193 72.624 63.3169 72.7114 63.4534 72.771C63.5898 72.8306 63.7362 72.8613 63.8839 72.8613C64.0316 72.8613 64.178 72.8306 64.3145 72.771C64.4509 72.7114 64.575 72.624 64.6793 72.5137L67.572 69.46C67.6765 69.3496 67.7594 69.2188 67.8159 69.0747C67.8724 68.9307 67.9016 68.7764 67.9016 68.6206C67.9016 68.4644 67.8724 68.3101 67.8159 68.166C67.7594 68.022 67.6765 67.8911 67.572 67.7808L66.5629 66.7158C66.8164 66.1953 67.0294 65.6538 67.2001 65.0967L68.625 65.0967ZM65.0703 64.3291C64.9315 64.7896 64.7556 65.2363 64.5447 65.665C64.3281 66.0918 64.2465 66.5801 64.3119 67.0591C64.3772 67.5381 64.5861 67.9824 64.9077 68.3271L65.1858 68.6206L63.8838 69.9946L63.6058 69.7012C63.2797 69.3613 62.8588 69.1406 62.4049 69.0718C61.9512 69.0029 61.4884 69.0889 61.0845 69.3179C60.6781 69.5405 60.2545 69.7261 59.8184 69.873C59.3805 70.0137 58.9966 70.2979 58.7227 70.6851C58.4487 71.0723 58.2991 71.5415 58.2957 72.0244L58.2957 72.4375L56.4543 72.4375L56.4543 72.0244C56.4509 71.5415 56.3013 71.0723 56.0273 70.6851C55.7534 70.2979 55.3695 70.0137 54.9316 69.873C54.4956 69.7261 54.0721 69.5405 53.666 69.3179C53.262 69.0894 52.7992 69.0029 52.3453 69.0723C51.8916 69.1411 51.4706 69.3613 51.1442 69.7012L50.8662 69.9946L49.5642 68.6206L49.8423 68.3271C50.1639 67.9824 50.3728 67.5381 50.4381 67.0596C50.5034 66.5806 50.4219 66.0923 50.2053 65.6655C49.9945 65.2368 49.8186 64.7896 49.6797 64.3291C49.5465 63.8667 49.2769 63.4614 48.9102 63.1724C48.5435 62.8833 48.0989 62.7256 47.6411 62.7217L47.25 62.7217L47.25 60.7783L47.6411 60.7783C48.0989 60.7744 48.5435 60.6167 48.9102 60.3276C49.2769 60.0386 49.5465 59.6333 49.6796 59.1709C49.8185 58.7104 49.9944 58.2637 50.2053 57.835C50.4219 57.4082 50.5034 56.9199 50.4381 56.4409C50.3728 55.9619 50.1639 55.5176 49.8422 55.1729L49.5642 54.8794L50.8661 53.5054L51.144 53.7988C51.4705 54.1387 51.8914 54.3589 52.3451 54.4282C52.7988 54.4971 53.2615 54.4106 53.6654 54.1821C54.0718 53.9595 54.4954 53.7739 54.9316 53.627C55.3695 53.4863 55.7534 53.2021 56.0273 52.8149C56.3013 52.4277 56.4509 51.9585 56.4543 51.4756L56.4543 51.0625L58.2957 51.0625L58.2957 51.4756C58.2991 51.9585 58.4487 52.4277 58.7227 52.8149C58.9965 53.2021 59.3805 53.4863 59.8184 53.627C60.2544 53.7739 60.6779 53.9595 61.084 54.1821C61.488 54.4106 61.9508 54.4966 62.4045 54.4272C62.8583 54.3584 63.2792 54.1382 63.6058 53.7988L63.8838 53.5059L65.1857 54.8794L64.9077 55.1729C64.5861 55.5176 64.3772 55.9619 64.3119 56.4404C64.2466 56.9194 64.3281 57.4077 64.5447 57.8345C64.7555 58.2632 64.9314 58.7104 65.0703 59.1709C65.2035 59.6333 65.4731 60.0386 65.8398 60.3276C66.2065 60.6167 66.6511 60.7744 67.1089 60.7783L67.5 60.7783L67.5 62.7217L67.1089 62.7217C66.6511 62.7256 66.2065 62.8833 65.8398 63.1724C65.4731 63.4614 65.2035 63.8667 65.0703 64.3291Z" fill="#C5A376" fill-opacity="1.000000" fill-rule="nonzero"/>
		<path id="Vector" d="M57.375 55.2188C56.1512 55.2188 54.955 55.6016 53.9374 56.3193C52.9199 57.0371 52.1268 58.0571 51.6584 59.2505C51.1902 60.4438 51.0676 61.7573 51.3064 63.0244C51.5452 64.291 52.1344 65.4551 52.9998 66.3682C53.8651 67.2817 54.9677 67.9038 56.1678 68.1558C57.3682 68.4077 58.6122 68.2783 59.7428 67.7842C60.8735 67.2896 61.8398 66.4526 62.5198 65.3784C63.1996 64.3047 63.5625 63.042 63.5625 61.75C63.5607 60.0186 62.9082 58.3584 61.7482 57.1338C60.5881 55.9097 59.0155 55.2207 57.375 55.2188ZM57.375 65.9062C56.5962 65.9062 55.835 65.6626 55.1875 65.2056C54.5399 64.749 54.0353 64.1001 53.7372 63.3403C53.4392 62.5811 53.3612 61.7456 53.5132 60.939C53.665 60.1328 54.0402 59.3926 54.5908 58.811C55.1415 58.23 55.843 57.834 56.6068 57.6738C57.3706 57.5132 58.1624 57.5957 58.8818 57.9102C59.6013 58.2246 60.2163 58.7573 60.6489 59.4409C61.0815 60.1245 61.3125 60.9277 61.3125 61.75C61.3113 62.8521 60.896 63.9082 60.1578 64.6875C59.4197 65.4668 58.4189 65.9048 57.375 65.9062Z" fill="#C5A376" fill-opacity="1.000000" fill-rule="nonzero"/>
		<path id="Vector" d="M3.13599 41.5356L7.87488 42.623L7.87488 64.125C7.875 64.3901 7.95886 64.647 8.11316 64.856C8.26758 65.0645 8.48352 65.2129 8.72693 65.2773L35.7269 72.4023C35.9053 72.4536 36.0939 72.4492 36.27 72.3901L36.2729 72.4023L45.2729 70.0273L44.7269 67.7231L37.125 69.729L37.125 41.2104L41.8958 47.0854C42.0015 47.2158 42.1324 47.3198 42.2799 47.3916C42.4274 47.4629 42.5876 47.5 42.75 47.5C42.8303 47.5005 42.9104 47.4912 42.9889 47.4727L61.875 43.1392L61.875 48.6875L64.125 48.6875L64.125 42.623L68.8639 41.5356C69.0613 41.4902 69.2435 41.3896 69.3914 41.2441C69.5393 41.0991 69.6473 40.9146 69.7042 40.71C69.7612 40.5054 69.7649 40.2881 69.715 40.0815C69.6649 39.875 69.5632 39.6865 69.4203 39.5356L62.6703 32.4106C62.5087 32.2437 62.3031 32.1323 62.0804 32.0913L62.082 32.083L44.082 28.5205L43.6678 30.855L55.548 33.2061L36 36.7944L16.4519 33.2061L28.332 30.855L27.9178 28.5205L9.91785 32.083L9.91931 32.0913C9.69666 32.1323 9.49109 32.2437 9.32959 32.4106L2.57959 39.5356C2.43665 39.6865 2.33496 39.875 2.28491 40.0815C2.23499 40.2881 2.23865 40.5054 2.29553 40.71C2.35254 40.9146 2.46057 41.0991 2.60852 41.2441C2.75635 41.3896 2.9386 41.4902 3.13599 41.5356ZM10.1249 63.1982L10.1249 43.1392L29.011 47.4731C29.0895 47.4912 29.1696 47.5005 29.25 47.5C29.4122 47.5 29.5725 47.4629 29.72 47.3916C29.8674 47.3198 29.9985 47.2158 30.1041 47.0854L34.875 41.2104L34.875 69.7295L10.1249 63.1982ZM61.4927 34.5259L66.3722 39.6772L43.1669 45.0015L38.1411 38.8125L61.4927 34.5259ZM10.5072 34.5259L33.8586 38.8125L28.833 45.0015L5.62769 39.6772L10.5072 34.5259Z" fill="#C5A376" fill-opacity="1.000000" fill-rule="nonzero"/>
		<path id="Vector" d="M25.9244 15.77C25.76 17.5283 25.9969 19.3027 26.6155 20.9448C27.234 22.5864 28.2161 24.0479 29.4796 25.207C29.7617 25.4644 29.9878 25.7837 30.1423 26.1421C30.2969 26.5005 30.3762 26.8896 30.375 27.2832L30.375 29.6875C30.3763 30.9468 30.8508 32.1543 31.6945 33.0444C32.5381 33.9351 33.6819 34.436 34.875 34.4375L37.125 34.4375C38.318 34.436 39.4618 33.9351 40.3054 33.0444C41.149 32.1543 41.6237 30.9468 41.625 29.6875L41.625 27.2827C41.6206 26.895 41.6959 26.5107 41.8458 26.1562C41.9958 25.8022 42.2168 25.4868 42.4935 25.2314C43.619 24.2051 44.5249 22.9375 45.1509 21.5137C45.7769 20.0894 46.1088 18.541 46.1245 16.9712C46.1401 15.4014 45.8394 13.8457 45.2418 12.4077C44.6444 10.9702 43.7642 9.68311 42.6593 8.63184C41.6104 7.63037 40.3702 6.87793 39.0226 6.4248C37.6748 5.97217 36.2509 5.8291 34.8464 6.00635C32.5275 6.31592 30.3784 7.45312 28.7556 9.229C27.1329 11.0049 26.1339 13.313 25.9244 15.77ZM32.625 27.3125L39.375 27.3125L39.375 28.5L32.625 28.5L32.625 27.3125ZM37.125 32.0625L34.875 32.0625C34.4818 32.061 34.0958 31.9507 33.7559 31.7422C33.4159 31.5337 33.1338 31.2349 32.9379 30.875L39.0621 30.875C38.8662 31.2349 38.5841 31.5337 38.2441 31.7422C37.9041 31.9507 37.5182 32.061 37.125 32.0625ZM35.1002 8.36621C35.4008 8.33008 35.703 8.31201 36.0055 8.31201C37.91 8.30957 39.7473 9.05518 41.1603 10.4033C42.0256 11.2285 42.7152 12.2388 43.1831 13.3662C43.651 14.4941 43.8867 15.7139 43.8745 16.9453C43.8623 18.1763 43.6025 19.3906 43.1123 20.5078C42.6222 21.625 41.9128 22.6196 41.0311 23.4258C40.573 23.8486 40.1975 24.3623 39.926 24.9375L37.125 24.9375L37.125 22.5625C37.1251 22.3779 37.0845 22.1963 37.0065 22.0312C36.9283 21.8667 36.8148 21.7231 36.675 21.6128L32.8112 18.5532C32.7535 18.5073 32.7068 18.4482 32.6744 18.3799C32.6421 18.3115 32.6252 18.2363 32.625 18.1602L32.625 17.1167C32.6322 17.0229 32.6638 16.9331 32.7162 16.8574C32.7687 16.7817 32.8398 16.7222 32.922 16.6865C33.0043 16.6504 33.0942 16.6392 33.1821 16.6538C33.27 16.668 33.3525 16.708 33.4204 16.7686L34.0796 17.4644C34.5969 17.9858 35.2847 18.2769 36 18.2769C36.7152 18.2769 37.4031 17.9858 37.9204 17.4644L38.5796 16.7686C38.6475 16.708 38.7299 16.668 38.8177 16.6538C38.9056 16.6392 38.9956 16.6504 39.0778 16.6865C39.16 16.7222 39.2312 16.7817 39.2837 16.8574C39.3361 16.9336 39.3677 17.0229 39.3749 17.1167L39.3749 18.1602C39.3746 18.2368 39.3577 18.312 39.3253 18.3804C39.2928 18.4487 39.246 18.5078 39.1881 18.5542L37.5748 19.8315L38.925 21.731L40.5378 20.4541C40.8746 20.1865 41.1481 19.8398 41.3367 19.4419C41.5253 19.0439 41.624 18.6055 41.625 18.1602L41.625 17.1167C41.625 16.5498 41.4657 15.9956 41.1672 15.5239C40.8688 15.0527 40.4447 14.6851 39.9485 14.4683C39.4521 14.251 38.9061 14.1943 38.3793 14.3052C37.8525 14.4155 37.3685 14.6885 36.9888 15.0894L36.3296 15.7852C36.2421 15.8774 36.1235 15.9287 36 15.9287C35.8765 15.9287 35.7581 15.8774 35.6704 15.7852L35.0112 15.0894C34.6315 14.6885 34.1475 14.4155 33.6207 14.3052C33.0939 14.1943 32.5479 14.251 32.0515 14.4683C31.5553 14.6851 31.1311 15.0527 30.8326 15.5239C30.5343 15.9951 30.375 16.5498 30.375 17.1167L30.375 18.1602C30.376 18.605 30.4746 19.0439 30.6631 19.4419C30.8516 19.8394 31.1249 20.186 31.4615 20.4536L34.875 23.1562L34.875 24.9375L32.0675 24.9375C31.7908 24.356 31.4104 23.8364 30.9474 23.4072C29.9567 22.4961 29.187 21.3477 28.7029 20.0586C28.2188 18.769 28.0342 17.376 28.1646 15.9956C28.3409 14.0864 29.1211 12.2959 30.3793 10.9116C31.6375 9.52783 33.3004 8.63086 35.1002 8.36621Z" fill="#C5A376" fill-opacity="1.000000" fill-rule="nonzero"/>
		<path id="Vector" d="M34.875 1.1875L37.125 1.1875L37.125 4.75L34.875 4.75L34.875 1.1875Z" fill="#C5A376" fill-opacity="1.000000" fill-rule="evenodd"/>
		<path id="Vector" d="M47.25 15.4375L50.625 15.4375L50.625 17.8125L47.25 17.8125L47.25 15.4375Z" fill="#C5A376" fill-opacity="1.000000" fill-rule="evenodd"/>
		<path id="Vector" d="M21.375 15.4375L24.75 15.4375L24.75 17.8125L21.375 17.8125L21.375 15.4375Z" fill="#C5A376" fill-opacity="1.000000" fill-rule="evenodd"/>
		<path id="Vector" d="M24.8632 6.54883L26.454 4.86963L28.8402 7.38818L27.2494 9.06787L24.8632 6.54883Z" fill="#C5A376" fill-opacity="1.000000" fill-rule="evenodd"/>
		<path id="Vector" d="M43.1598 7.38818L45.546 4.86914L47.1368 6.54883L44.7506 9.06738L43.1598 7.38818Z" fill="#C5A376" fill-opacity="1.000000" fill-rule="evenodd"/>
	</g>
</svg>
